<svg width="42" height="43" viewBox="0 0 42 43" fill="none" xmlns="http://www.w3.org/2000/svg">
<path d="M6 0.0527344C2.69063 0.0527344 0 2.79029 0 6.15739V36.6806C0 40.0477 2.69063 42.7853 6 42.7853H15.2062V28.8781H10.2563V21.419H15.2062V18.2045C15.2062 9.89648 18.9 6.04292 26.925 6.04292C28.4438 6.04292 31.0687 6.34816 32.1469 6.65339V13.4067C31.5844 13.3494 30.6 13.3113 29.3719 13.3113C25.4344 13.3113 23.9156 14.8279 23.9156 18.7673V21.419H31.7531L30.4031 28.8781H23.9062V42.7853H36C39.3094 42.7853 42 40.0477 42 36.6806V6.15739C42 2.79029 39.3094 0.0527344 36 0.0527344H6Z" fill="#F8F8F8"/>
</svg>
