<svg width="44" height="46" viewBox="0 0 44 46" fill="none" xmlns="http://www.w3.org/2000/svg">
<path d="M4.31622 0C1.83779 0.0990084 0.465445 1.43148 0 3.99623L0.0245599 6.33345C0.718242 4.60244 1.4793 3.157 4.35216 2.88455L5.83428 2.89115C4.62395 3.46859 3.55889 4.43425 2.73338 6.03918C2.07326 8.01444 1.79222 10.1213 3.17427 12.8078C4.76044 14.6783 6.473 15.4989 8.25514 15.7314C10.1203 15.7666 12.2807 14.8109 13.7395 12.8894C15.1519 10.5616 14.9931 9.71159 14.9548 8.61606C14.8148 8.12197 14.5681 7.46838 13.7313 7.48568L8.53171 7.45281V10.4529L11.7156 10.4233C11.4392 11.3445 10.6647 11.9883 9.65429 12.5005C8.40092 12.7755 7.31511 12.5742 6.40533 11.875C5.36238 10.8126 4.84845 10.0424 5.08915 8.26966C5.41319 7.21103 5.59061 6.13147 7.88745 5.34601C9.39321 5.08451 10.45 5.69041 11.3203 6.65487L13.611 4.80887C12.9132 3.97082 12.0855 3.3408 11.208 2.90852L31.0743 2.97299C27.3229 3.29698 25.5731 4.75219 23.9256 6.34705C21.6328 8.89449 20.9947 11.7584 21.4966 14.8206C21.7341 15.812 22.1457 16.8621 22.6745 17.9414L0.69322 41.0587C0.434872 40.6301 0.223487 40.163 0.0245599 39.6666L0 42.0038C0.465445 44.5685 1.83779 45.9027 4.31622 46.0017H40.2825C42.3458 45.7659 43.3515 44.237 44 42.2706V39.0019C43.5242 41.5111 42.1815 42.9572 39.6936 43.0016L34.2987 43.018L20.5854 28.8808L25.9591 23.1847C25.9598 23.1857 25.96 23.1871 25.9607 23.188C27.6312 25.4586 29.5277 27.6845 31.31 29.6269C34.9945 25.3726 38.6577 21.1041 40.7592 15.7973C41.4148 13.3565 41.1103 10.9274 39.9034 8.49156L43.2402 4.8897C43.5926 5.47198 43.844 6.17808 44 7.00084V3.73042C43.3515 1.76301 42.3458 0.235811 40.2825 0H4.31622ZM31.3588 2.97294L36.9245 2.99269L35.828 4.17403L35.8151 4.18061C34.3465 3.37091 32.8779 3.05961 31.3588 2.97294ZM31.3231 8.99703C33.552 8.99703 35.3716 10.8109 35.514 13.102C35.52 13.1974 35.5269 13.2939 35.5269 13.3909C35.5269 15.8167 33.6447 17.7832 31.3229 17.7832C31.2449 17.7832 31.1689 17.7766 31.0919 17.7701C28.8791 17.6431 27.119 15.735 27.119 13.3913C27.119 13.3575 27.1231 13.3249 27.124 13.291C27.1749 10.9458 28.9824 9.05725 31.2271 9.00413C31.2594 9.00338 31.2906 8.99703 31.3231 8.99703ZM16.2383 33.3943L25.6061 43.0457L7.16331 43.1069L16.2383 33.3943Z" fill="#F8F8F8"/>
</svg>
