<svg width="42" height="43" viewBox="0 0 42 43" fill="none" xmlns="http://www.w3.org/2000/svg">
<path d="M21.0093 10.4488C15.0468 10.4488 10.2375 15.3421 10.2375 21.4086C10.2375 27.4751 15.0468 32.3683 21.0093 32.3683C26.9718 32.3683 31.7812 27.4751 31.7812 21.4086C31.7812 15.3421 26.9718 10.4488 21.0093 10.4488ZM21.0093 28.5339C17.1562 28.5339 14.0062 25.3385 14.0062 21.4086C14.0062 17.4787 17.1468 14.2833 21.0093 14.2833C24.8718 14.2833 28.0125 17.4787 28.0125 21.4086C28.0125 25.3385 24.8625 28.5339 21.0093 28.5339ZM34.7343 10.0005C34.7343 11.4218 33.6093 12.5568 32.2218 12.5568C30.825 12.5568 29.7093 11.4122 29.7093 10.0005C29.7093 8.58882 30.8343 7.4442 32.2218 7.4442C33.6093 7.4442 34.7343 8.58882 34.7343 10.0005ZM41.8687 12.595C41.7093 9.17067 40.9406 6.13742 38.475 3.63833C36.0187 1.13924 33.0375 0.357081 29.6718 0.185388C26.2031 -0.014921 15.8062 -0.014921 12.3375 0.185388C8.9812 0.347543 5.99995 1.1297 3.53433 3.62879C1.0687 6.12788 0.309326 9.16113 0.140576 12.5855C-0.0562988 16.1147 -0.0562988 26.6929 0.140576 30.2222C0.299951 33.6465 1.0687 36.6798 3.53433 39.1788C5.99995 41.6779 8.97183 42.4601 12.3375 42.6318C15.8062 42.8321 26.2031 42.8321 29.6718 42.6318C33.0375 42.4696 36.0187 41.6875 38.475 39.1788C40.9312 36.6798 41.7 33.6465 41.8687 30.2222C42.0656 26.6929 42.0656 16.1243 41.8687 12.595ZM37.3875 34.009C36.6562 35.8785 35.2406 37.3188 33.3937 38.0724C30.6281 39.1884 24.0656 38.9308 21.0093 38.9308C17.9531 38.9308 11.3812 39.1788 8.62495 38.0724C6.78745 37.3284 5.37183 35.8881 4.6312 34.009C3.53433 31.1951 3.78745 24.5181 3.78745 21.4086C3.78745 18.299 3.5437 11.6125 4.6312 8.80821C5.36245 6.93866 6.77808 5.49834 8.62495 4.7448C11.3906 3.62879 17.9531 3.88633 21.0093 3.88633C24.0656 3.88633 30.6375 3.63833 33.3937 4.7448C35.2312 5.4888 36.6468 6.92912 37.3875 8.80821C38.4843 11.6221 38.2312 18.299 38.2312 21.4086C38.2312 24.5181 38.4843 31.2046 37.3875 34.009Z" fill="#F8F8F8"/>
</svg>
