<svg width="26" height="26" viewBox="0 0 26 26" fill="none" xmlns="http://www.w3.org/2000/svg">
<path d="M12.9034 24.4517C17.8092 24.4517 21.7862 20.4029 21.7862 15.4085C21.7862 10.414 17.8092 6.36523 12.9034 6.36523C7.9975 6.36523 4.02051 10.414 4.02051 15.4085C4.02051 20.4029 7.9975 24.4517 12.9034 24.4517Z" stroke="#283227" stroke-width="2" stroke-linecap="square" stroke-linejoin="round"/>
<path d="M25.2396 10.2777C25.2396 10.8071 23.9603 11.3151 21.6812 11.6906C19.4021 12.0661 16.3083 12.2787 13.0752 12.2819C9.84219 12.2852 6.73262 12.0788 4.4255 11.7079C2.11839 11.337 0.801151 10.8317 0.761423 10.3023C0.721697 9.77295 1.96271 9.26248 4.21348 8.8824C6.46424 8.50233 9.5419 8.28354 12.7744 8.27378C16.007 8.26402 19.1318 8.4641 21.4666 8.83033C23.8014 9.19656 25.1564 9.69918 25.2359 10.2285L13 10.2777L25.2396 10.2777Z" fill="#283227" stroke="#283227" stroke-width="1.2" stroke-linecap="square" stroke-linejoin="round"/>
<path d="M12.7918 0C6.8102 0.015485 1.9042 5.21612 1.67041 11.7889H23.9367C23.7026 5.20608 18.7825 0.00171883 12.7918 0Z" fill="#283227"/>
<path d="M10.6129 18.1258L11.9753 15.4488L12.7473 15.079L13.6101 15.4951L15.0407 18.1766L19.0371 17.4138L19.1052 13.8769L16.3804 12.6286L12.8154 12.8829L9.52291 12.6055L6.68457 13.8075L6.75268 17.3444L10.6129 18.1258Z" stroke="#283227" stroke-linecap="square" stroke-linejoin="round"/>
</svg>
