<svg width="250" height="241" viewBox="0 0 250 241" fill="none" xmlns="http://www.w3.org/2000/svg">
<path d="M35.8362 0.0115126C19.9264 -0.0826551 7.90062 0.431799 7.90062 0.431799L0 0.761856L0.305267 171.881L131.005 41.3824C137.127 47.2095 148.99 59.1694 157.757 76.5795C163.149 87.2895 166.673 101.647 167.813 113.632C168.383 119.625 168.361 125.059 167.885 128.931C167.408 132.804 167.523 132.04 166.872 133.872L179.772 146.458C182.012 143.633 183.553 136.49 184.237 130.93C184.921 125.37 184.873 118.98 184.213 112.069C183.098 100.349 179.798 87.462 174.876 75.6361L249.138 1.727L149.782 0.372665L125.245 23.8508L16.7054 132.225L16.4938 16.8706C22.1786 16.6794 33.5839 16.1513 52.1493 16.8116C63.4891 17.2149 75.2746 18.0494 84.8359 19.5545C94.3973 21.0595 101.89 24.0939 102.886 24.9687L113.765 12.5991C106.963 6.62471 98.0561 4.97201 87.3905 3.29316C76.725 1.61431 64.4685 0.768234 52.7382 0.350992C46.873 0.142353 41.1395 0.0429019 35.8362 0.0115126ZM156.299 16.9298L209.777 17.6614L166.987 60.2559C157.422 44.7709 148.679 35.4138 142.79 29.8629L156.299 16.9298ZM145.641 83.3792L107.867 121.413L156.084 169.596C138.993 196.269 120.378 209.699 105.985 216.633C90.9895 223.857 81.3519 223.962 81.3519 223.962H28.7892L80.2211 172.563L106.63 197.85L119.257 190.427L80.0341 149.464L0.862954 228.738L0.713379 240.295L81.6572 240.426H81.7633C81.7633 240.426 95.5172 239.951 113.145 231.459C118.208 229.019 123.659 225.881 129.307 221.938L148.404 239.89L250 240.167L131.145 121.388L152.383 99.41L145.641 83.3792ZM167.981 181.489L210.226 223.703L156.417 223.52L142.557 211.353C151.089 203.603 159.747 193.807 167.981 181.489Z" fill="#283226"/>
</svg>
