<svg width="33" height="34" viewBox="0 0 33 34" fill="none" xmlns="http://www.w3.org/2000/svg">
<path d="M6.84363 14.7663C9.42824 19.9909 13.5923 24.2555 18.6718 26.9325L22.6206 22.8709C23.1052 22.3725 23.8231 22.2063 24.4513 22.4278C26.4616 23.1109 28.6334 23.4801 30.859 23.4801C31.8462 23.4801 32.6539 24.3109 32.6539 25.3263V31.7694C32.6539 32.7848 31.8462 33.6155 30.859 33.6155C14.0052 33.6155 0.346191 19.5663 0.346191 2.23092C0.346191 1.21553 1.15388 0.384766 2.14106 0.384766H8.42311C9.41029 0.384766 10.218 1.21553 10.218 2.23092C10.218 4.53861 10.577 6.754 11.2411 8.82169C11.4385 9.46784 11.2949 10.1878 10.7923 10.7048L6.84363 14.7663Z" fill="#F8F8F8"/>
</svg>
