<svg width="44" height="42" viewBox="0 0 44 42" fill="none" xmlns="http://www.w3.org/2000/svg">
<path d="M43.1578 16.1215C44.4039 23.8301 40.4937 31.2062 33.4297 34.818C34.5469 37.8816 32.364 41.125 29.2789 41.125C28.1411 41.1243 27.047 40.6674 26.222 39.8483C25.397 39.0292 24.9039 37.9105 24.8445 36.7227C24.2945 36.7406 19.3273 36.7227 18.2875 36.6688C18.2384 37.8994 17.7237 39.0593 16.8567 39.8933C15.9896 40.7273 14.8412 41.1671 13.664 41.116C10.7508 40.9902 8.67967 37.9895 9.62498 35.0156C6.42811 33.8387 3.39452 31.8801 1.06561 28.6547C-0.0515775 27.1004 1.02264 24.8992 2.85311 24.8992C6.83202 24.8992 5.6203 20.0297 6.56561 14.9895C8.14686 6.55313 16.5945 0.875 24.7586 0.875C33.5672 0.875 41.7055 7.22695 43.1578 16.1215ZM32.0976 32.8863C35.707 31.1613 39.0844 27.7922 40.3734 23.7133C43.8539 12.6535 34.8562 3.22891 24.7586 3.22891C17.5828 3.22891 10.1234 8.20625 8.76561 15.4477C7.9492 19.841 9.1953 27.2531 2.85311 27.2531C5.00155 30.218 7.87186 31.9699 10.914 32.9941C13.0367 31.0355 16.4055 31.6016 17.7719 34.2789C18.9922 34.3687 24.5781 34.3867 25.3258 34.3508C25.6282 33.7335 26.0591 33.1949 26.5867 32.7745C27.1143 32.3541 27.7252 32.0626 28.3747 31.9212C29.0242 31.7799 29.6957 31.7925 30.3399 31.9579C30.9841 32.1234 31.5847 32.4375 32.0976 32.8773V32.8863ZM17.6258 14.8098C17.6258 11.6922 21.9914 11.6832 21.9914 14.8098C21.9914 17.9363 17.6258 17.9273 17.6258 14.8098ZM27.6461 14.8098C27.6461 11.6922 32.0203 11.6832 32.0203 14.8098C32.0203 17.9363 27.6461 17.9363 27.6461 14.8098ZM17.1101 21.1617C16.818 19.6434 19.018 19.1672 19.3101 20.6945L19.3187 20.7215C19.6711 22.6441 21.8883 24.6746 24.8273 24.5938C27.8953 24.5129 29.9234 22.5992 30.3359 20.7484C30.7226 19.302 32.7937 19.8141 32.5273 21.2875C32.0805 23.282 29.8461 26.8578 24.664 26.9387C21.0031 26.9387 17.7117 24.441 17.1101 21.1617Z" fill="#F8F8F8"/>
</svg>
